<?xml version="1.0" encoding="UTF-8"?>
<svg xmlns="http://www.w3.org/2000/svg" version="1.1" viewBox="0 0 1440 864">
  <defs>
    <style>
      .cls-1 {
        fill: #fff;
      }
    </style>
  </defs>
  <!-- Generator: Adobe Illustrator 28.7.10, SVG Export Plug-In . SVG Version: 1.2.0 Build 236)  -->
  <g>
    <g id="Layer_1">
      <path class="cls-1" d="M304,196.7c-7.8-16.6-31.2-22.7-48-3v-9.7h-20.9v85.8h21.5c0-2.5,0-4.7,0-6.8,0-15.6-.2-31.2.2-46.7.2-8.7,7.1-15.1,15.3-15.1,7.1,0,13.9,4.7,13.8,14.8-.2,15.4,0,30.8,0,46.2,0,2.4,0,4.9,0,7.6h21.6c0-1.9,0-3.5,0-5.2,0-14.9-.2-29.8.1-44.8,0-3.8,1-8,2.7-11.4,3.1-6.2,10.4-8.7,17.5-6.9,6.3,1.6,10.2,6.9,10.3,14.6.2,16.1,0,32.2.1,48.2,0,1.8,0,3.5,0,5.3h20.8c0-20.6.6-40.9-.2-61.1-.7-17.1-12.1-28-29.4-27.4-11.5.4-19.2,6.2-25.7,15.3Z"/>
      <path class="cls-1" d="M237.6,136.2c-19.5-3.5-37.6,8.4-38.6,30.3-.5,10.1.2,20.2-.2,30.3-.2,4.8-.7,10.3-3.1,14.1-2.1,3.4-7.2,4.9-11.4,7.6v22.7c10.7,2,14.6,6.6,14.7,17.3,0,12.9,0,25.9,0,38.8.2,21.2,17.1,35.5,38.5,32.3v-16c-16.2-1.4-19.7-5.2-19.6-21.2,0-10.8.1-21.5,0-32.3-.1-7.2-.9-14.5-5.6-20.2-3.6-4.4-8.5-7.7-12.6-11.3,11.8-4.8,18.1-14.4,18.3-28.9.1-10.9,0-21.9,0-32.8.1-8,4.9-13.3,12.8-14.6,2.2-.4,4.5-.4,7-.6v-15.5Z"/>
      <path class="cls-1" d="M359.5,329.5c20.4,3.1,37.4-11.4,37.7-31.8.1-11.9-.3-23.9.2-35.8.2-5,.7-10.6,3.2-14.6,2.1-3.4,7.2-4.9,11.4-7.6v-22.7c-10.2-1.8-14.4-6.5-14.6-17-.2-10.4,0-20.9-.1-31.3-.3-21.5-17.5-36.4-37.6-32.6v15.6c15,1.2,18.9,5.5,19,20.4,0,9.3-.2,18.6,0,27.8.4,13.5,5.7,23.9,19.4,29.2-15.5,6.1-19.7,18.3-19.5,33.2.1,10.8,0,21.5,0,32.3,0,13-4.7,18-17.6,18.7-.5,0-.9.3-1.5.5v15.7Z"/>
      <path class="cls-1" d="M354.3,290.4h-113.4v16h113.4v-16Z"/>
      <path d="M304,196.7c6.5-9.1,14.2-14.9,25.7-15.3,17.3-.6,28.6,10.3,29.4,27.4.8,20.2.2,40.4.2,61.1h-20.8c0-1.8,0-3.5,0-5.3,0-16.1,0-32.2-.1-48.2,0-7.8-4-13-10.3-14.6-7.1-1.8-14.4.6-17.5,6.9-1.7,3.4-2.7,7.5-2.7,11.4-.3,14.9-.1,29.8-.1,44.8,0,1.6,0,3.2,0,5.2h-21.6c0-2.7,0-5.1,0-7.6,0-15.4-.2-30.8,0-46.2.1-10.1-6.7-14.8-13.8-14.8-8.3,0-15.2,6.4-15.3,15.1-.3,15.6-.1,31.2-.2,46.7,0,2.1,0,4.3,0,6.8h-21.5v-85.8h20.9v9.7c16.9-19.8,40.2-13.6,48,3Z"/>
      <path d="M237.6,136.2v15.5c-2.4.2-4.7.2-7,.6-7.9,1.3-12.7,6.6-12.8,14.6-.2,10.9,0,21.9,0,32.8-.2,14.5-6.5,24.1-18.3,28.9,4.1,3.6,9,6.9,12.6,11.3,4.7,5.7,5.5,13,5.6,20.2.2,10.8,0,21.5,0,32.3,0,16,3.4,19.8,19.6,21.2v16c-21.4,3.2-38.3-11.1-38.5-32.3-.1-12.9,0-25.9,0-38.8,0-10.7-4-15.3-14.7-17.3v-22.7c4.3-2.7,9.3-4.2,11.4-7.6,2.4-3.8,2.9-9.3,3.1-14.1.4-10.1-.2-20.2.2-30.3,1-21.8,19.1-33.7,38.6-30.3Z"/>
      <path d="M359.5,329.5v-15.7c.6-.2,1-.5,1.5-.5,12.9-.6,17.6-5.6,17.6-18.7,0-10.8.1-21.5,0-32.3-.2-14.9,4-27.1,19.5-33.2-13.7-5.3-19.1-15.7-19.4-29.2-.2-9.3,0-18.6,0-27.8,0-14.9-3.9-19.2-19-20.4v-15.6c20.1-3.8,37.3,11.1,37.6,32.6.2,10.4-.1,20.9.1,31.3.2,10.5,4.4,15.1,14.6,17v22.7c-4.2,2.7-9.3,4.2-11.4,7.6-2.5,4.1-3,9.7-3.2,14.6-.4,11.9,0,23.9-.2,35.8-.3,20.4-17.3,34.9-37.7,31.8Z"/>
      <path d="M354.3,290.4v16h-113.4v-16h113.4Z"/>
    </g>
  </g>
</svg>